<?xml version="1.0" encoding="utf-8"?>
<svg version="1.1" id="Layer_1" xmlns="http://www.w3.org/2000/svg" xmlns:xlink="http://www.w3.org/1999/xlink" x="0px" y="0px"
	 viewBox="0 0 547.4 99.5" style="enable-background:new 0 0 547.4 99.5;" xml:space="preserve">
<style type="text/css">
	.st0{fill:#FFFFFF;}
</style>
<path class="st0" d="M259,68.5c16.6-0.7,30.3,5.7,43.3,20.9c-4.6-9.6-12.3-16.3-18.6-19.5C278.8,67.3,271.7,65.1,259,68.5z"/>
<path class="st0" d="M448.9,79.9c-13.6-9.3-36.1-16.3-63.7-8.7c9.6-7.3,23.6-8.2,33.7-7.3C427.1,64.6,441.5,69,448.9,79.9z"/>
<path class="st0" d="M124.5,58c-7.5,3-16.9,9.3-31.5,8.5S59,54,50.8,51.4s-20.2-7.7-37-4.8c12,1.2,20.6,3.7,31.8,8.5
	c11.1,4.8,29.7,14.8,42.3,16C98.5,72.1,113.8,68.2,124.5,58z"/>
<path class="st0" d="M347.3,50c35.6,2.9,44.4-7.9,62.2-17.4c13.2-7.1,30.2-7.6,41,0c10.1,7.1,15.8,14.6,27.5,17.9
	c-17.4-2.2-26-16.5-42.1-17.8c-10.9-0.9-16.8,0.9-26.5,5.2C398.3,42.9,387.4,59.7,347.3,50z"/>
<path class="st0" d="M256.6,57.1c-45.7,26.9-74.1,12.3-90.5-5.4c-10.5-11.3-20.5-17.2-37.5-13.7c-13.3,2.7-16,11.4-38,6.3
	c23.4,10.4,31.5-6.6,50.9-2.9c15,2.9,21.4,13.9,26.8,18.8C185.5,75.6,217.3,89.1,256.6,57.1z"/>
<path class="st0" d="M369.3,64.1c-6.1-0.1-22.5-1.3-30.4-5c-11.5-5.3-21.4-15.4-30.3-22.4c-9.9-7.7-16.8-10.6-26.4-7.8
	c9.9-1.2,19.7,6.6,25.7,12.5s18.7,15.9,25.9,19.2C344.7,65.7,354.4,67.3,369.3,64.1z"/>
<path class="st0" d="M517.1,62.8c-5.7,2-21.5,6.5-30.2,5.7c-12.6-1-26.8-11.4-37.6-14.9c-12-3.9-19.2-4.9-28.4-1.9
	c10.6-0.9,20.6,3.1,28.3,6.6c7.6,3.5,25.5,12.7,33.4,13.4C494.6,72.7,504.3,70.9,517.1,62.8z"/>
<path class="st0" d="M222.2,54.6c-17,0.5-24-2.1-32-6.4C177.4,41.4,174,33.6,162.9,26c-12.3-8.4-20-5.2-31.7,1
	c12.2-4.1,18.5-4.8,29,1.6c8.8,5.5,14.1,14.6,26.7,22.8C195.7,57.3,212.3,59.2,222.2,54.6z"/>
<path class="st0" d="M241,46.9c5.9-7.1,18.6-15.5,35.5-9c17.3,6.7,21.7,27.6,45.4,29.8c-29.3,0-29.5-18.7-48.3-25.6
	C260.7,37.4,251.4,41.3,241,46.9z"/>
<path class="st0" d="M526.4,41.4c-11.7,6.5-27.1,9.1-36,8.7c9.4,2.7,20.6,0.6,25.5-0.1c4.9-0.7,20.6-8.3,31-13.1
	c0.1-0.1,0.2-0.1,0.4-0.1v-5.9C540.7,33.7,534,37.2,526.4,41.4z"/>
<path class="st0" d="M40,26.5c-10.8-1.7-18.6-2.6-28.9,0.3c-3.7,1-7.4,2.4-11,4v5.9c10.5-4.7,27.3-6.1,33.8-5.5
	c6.6,0.6,23.7,5.3,38.3,12.4C67.5,39,50.8,28.2,40,26.5z"/>
<path class="st0" d="M546.1,10c-32.6,17.7-53.8,27.7-76.5,11.4l-0.1,0.2c-0.1-0.1-0.2-0.3-0.3-0.4c-6.9-4.9-25.3-18.1-41.9-16.1
	c-13.2,1.6-24.6,7.8-35.6,13.8c-14,7.6-27.1,14.9-43.7,13.3c-12.6-1.2-20.6-7.4-29.1-13.9c-5.2-4-10.5-8.2-17.2-11.5
	c-16.5-8.2-32.5-0.8-48.8,8.1c-1.8,1-3.6,2-5.5,3.1c-17,9.6-36.3,20.6-57.3,6.9c-3.8-2.5-7.3-5.9-11-9.5c-8.3-8.1-17.7-17.3-31.7-15
	c-9.2,1.5-17.1,6.3-24.8,10.9c-9.8,5.8-19,11.4-30.4,10.4c-11.5-1-18.7-4.8-26.3-8.7c-6.3-3.3-12.7-6.6-22-8.9
	c-15.2-3.8-29.5-2-43.8,5.4v6.2C0.5,15.5,1,15.2,1.4,15c17.9-9.7,32.1-7.8,41.2-5.6c8.7,2.2,14.8,5.4,20.8,8.5
	c8.1,4.2,15.7,8.2,28.3,9.3c13.1,1.2,23.6-5.1,33.7-11.1c7.6-4.5,14.7-8.8,22.9-10.2c11.3-1.9,18.9,5.6,27,13.5
	c3.7,3.7,7.6,7.4,11.8,10.2c23.7,15.5,45.5,3.2,62.9-6.7c1.8-1,3.7-2.1,5.4-3.1c15.6-8.5,29.6-15,43.8-8c6.2,3.1,11.3,7.1,16.3,10.9
	c8.7,6.7,17.7,13.7,31.9,15c1.7,0.2,3.4,0.2,5,0.2c16,0,29.1-7.2,41.9-14.2c11-6.1,21.5-11.8,33.6-13.2
	c14.5-1.6,31.6,10.5,38.5,15.4l0,0c26.3,18.8,51.7,5.5,81-10.3V9.4C546.9,9.6,546.5,9.8,546.1,10z"/>
<path class="st0" d="M19.6,94.5c5.2,1.8,10.4,3.6,16.3,5H17.1c-5.6-2-11-3.8-17.1-5v-5.6c0.2,0,0.4,0.1,0.5,0.1
	C7.5,90.3,13.6,92.4,19.6,94.5z M321.1,99.5h16.2c6.7-1.9,14.1-3.1,22.8-3.2c6-0.1,11.8,1.2,17.4,3.2h13.2c-9.3-5-19.7-8.9-30.6-8.7
	C344,91,332,94.8,321.1,99.5z M491.9,99.5H502c17-9.4,31.9-7.7,44.8-5.2c0.2,0,0.4,0.1,0.5,0.1v-5.6
	C535.7,86.5,515.3,82.8,491.9,99.5z M97.6,89.3c-7.3,4-14.4,7.8-21.7,10.2h14c3.4-1.7,6.8-3.5,10.3-5.4c15.2-8.2,31-16.7,51.7-14.2
	c18,2.2,33.4,10.7,47.2,19.6h10c-16.1-10.6-34.2-22.3-56.5-25C130.1,71.7,113.6,80.6,97.6,89.3z"/>
<path class="st0" d="M122.1,99.5h10c4.7-1.6,9.5-3,15-4.2C136.9,94.8,128.7,96.9,122.1,99.5z"/>
</svg>
