<?xml version="1.0" encoding="UTF-8"?>
<svg id="Calque_2" data-name="Calque 2" xmlns="http://www.w3.org/2000/svg" viewBox="0 0 175.15 131.98">
  <defs>
    <style>
      .cls-1 {
        fill: #fff;
      }
    </style>
  </defs>
  <g id="Calque_1-2" data-name="Calque 1">
    <path class="cls-1" d="M52.57,123.07c3.48,.03,6.97,.01,10.45,.01h1.11c-.08-1.23-.05-2.38-.24-3.48-.5-2.83-1.86-5.04-4.78-5.93-4.03-1.23-8.05,.93-9.46,5.05-.66,1.92-.74,3.91-.48,5.88,.39,3.04,1.74,5.54,4.75,6.69,3.15,1.2,6.25,.76,9.21-.75,.17-.09,.36-.36,.34-.53-.06-.58-.2-1.15-.32-1.78-.37,.16-.63,.31-.91,.38-1.36,.36-2.7,.88-4.08,1.02-3.6,.39-6.09-1.94-6.36-5.72-.05-.66,.13-.84,.79-.84Zm-.65-2.72c.29-.84,.48-1.74,.9-2.51,.99-1.82,2.89-2.62,4.99-2.25,1.74,.31,3.04,1.72,3.41,3.71q.35,1.88-1.56,1.88h-3.1c-1.33,0-2.66-.02-4,0-.64,.01-.85-.23-.64-.83Z"/>
    <path class="cls-1" d="M154.62,113.9c-3.24-1.08-6.36-.53-9.46,.86,.26,.7,.49,1.33,.75,2.05,1.96-.88,3.85-1.37,5.88-1.25,1.65,.09,2.71,.92,3.01,2.55,.13,.71,.09,1.46,.15,2.19,.04,.49-.19,.69-.65,.72-.87,.05-1.73,.12-2.6,.19-2.01,.18-4,.48-5.79,1.49-2.04,1.16-2.51,3.01-2.23,5.17,.24,1.9,1.32,3.16,3.12,3.69,2.54,.75,4.95,.49,7.07-1.25,.35-.28,.7-.57,1.13-.94,.19,.79,.35,1.46,.51,2.13h1.89c.04-.12,.09-.19,.08-.27,0-4.33,.07-8.65-.05-12.97-.05-1.92-.78-3.69-2.82-4.38Zm-5.96,15.85c-1.33-.31-2.09-.98-2.29-2.11-.28-1.59,.16-2.95,1.41-3.52,1.12-.5,2.36-.76,3.57-1.02,.84-.18,1.73-.18,2.59-.29,.91-.11,.97-.07,.98,.87,0,.27,0,.54,0,.82,.38,3.94-3.77,5.83-6.26,5.25Z"/>
    <path class="cls-1" d="M89,122.28c-.64-.3-1.31-.53-1.96-.78-1.17-.45-2.35-.86-3.5-1.34-.93-.39-1.46-1.11-1.39-2.17,.06-1.07,.63-1.84,1.62-2.12,.87-.24,1.83-.41,2.72-.32,1.36,.13,2.7,.51,4.13,.8,.2-.54,.44-1.16,.7-1.87-2.9-1.15-5.78-1.65-8.71-.54-1.8,.68-2.94,2.02-3.02,4.06-.09,2.07,.9,3.46,2.71,4.34,.46,.22,.95,.4,1.43,.59,1.39,.55,2.81,1.02,4.16,1.65,1.27,.59,1.73,1.48,1.57,2.67-.17,1.26-.96,1.98-2.14,2.29-1.71,.45-3.4,.29-5.06-.25-.74-.24-1.46-.55-2.23-.85-.07,.42-.09,.81-.21,1.16-.31,.9,.17,1.23,.92,1.51,2.3,.85,4.66,1.06,7.05,.59,2.43-.48,3.97-2.11,4.16-4.49,.19-2.37-.7-3.88-2.96-4.93Z"/>
    <path class="cls-1" d="M171.09,115.71c.95,.17,1.87,.49,2.88,.76,.21-.59,.43-1.25,.74-2.12-1.21-.33-2.31-.75-3.44-.9-4.11-.52-7.65,1.11-9.14,5.45-.58,1.69-.69,3.44-.51,5.22,.64,6.33,5.62,8.95,11.3,7.36,1.59-.45,1.62-.6,1.39-2.22-.02-.16-.05-.31-.1-.57-.81,.27-1.51,.56-2.23,.75-3.63,.97-6.51-.6-7.41-4.04-.5-1.9-.47-3.82,.09-5.71,.9-3.02,3.32-4.54,6.43-3.99Z"/>
    <path class="cls-1" d="M45.53,129.7c-1.25-.02-1.99-.62-2.16-1.87-.11-.8-.18-1.62-.18-2.43-.01-5.9,0-11.8,0-17.7v-1.01c-.56,0-1.02-.01-1.47,0-1.08,.03-1.09,.04-1.09,1.11,0,6.15-.02,12.29,.02,18.44,0,.99,.15,2,.38,2.97,.31,1.32,1.2,2.22,2.54,2.47,.95,.18,1.95,.23,2.91,.13,1.84-.18,1.84-.25,1.4-2.1-.83,0-1.58,0-2.34,0Z"/>
    <path class="cls-1" d="M36.36,129.7c-1.25-.02-1.99-.62-2.16-1.87-.11-.8-.18-1.62-.18-2.43-.01-5.9,0-11.8,0-17.7v-1.01c-.56,0-1.02-.01-1.47,0-1.08,.03-1.09,.04-1.09,1.11,0,6.15-.02,12.29,.02,18.44,0,.99,.15,2,.38,2.97,.31,1.32,1.2,2.22,2.54,2.47,.95,.18,1.95,.23,2.91,.13,1.84-.18,1.84-.25,1.4-2.1-.83,0-1.58,0-2.34,0Z"/>
    <path class="cls-1" d="M141.15,129.69c-.43,.02-.87,.03-1.3,0-.94-.04-1.62-.53-1.82-1.46-.18-.9-.29-1.83-.3-2.74-.03-5.93-.01-11.86-.01-17.78v-1.03c-.6,0-1.11,.01-1.62,0-.72-.02-.96,.26-.96,1.02,.03,6.23,0,12.45,.04,18.68,0,.94,.15,1.9,.38,2.81,.33,1.35,1.23,2.26,2.61,2.5,.95,.17,1.95,.21,2.91,.11,1.76-.18,1.84-.4,1.28-2.22-.4,.04-.8,.09-1.2,.11Z"/>
    <path class="cls-1" d="M118.52,118.16c-2.38-.67-4.83,.1-6.21,1.96-1.78,2.39-1.94,6.43-.35,8.95,.83,1.32,2.01,2.13,3.51,2.46,1.83,.4,3.62,.2,5.36-.48,1.22-.48,1.32-.78,.71-1.92-1.03,.28-2.04,.62-3.07,.81-3.21,.6-5.66-1.49-5.48-4.75h7.22q2.2,0,2.02-2.24c-.18-2.29-1.67-4.22-3.7-4.79Zm1.3,5.34c-2.23,0-4.45,0-6.74,0-.02-2.06,1.46-3.72,3.35-3.84,2.2-.14,3.6,1.03,3.84,3.19,.04,.36,.05,.66-.45,.66Z"/>
    <path class="cls-1" d="M76.24,113.54c-2.12,0-3.75,.95-5.07,2.53-.18,.22-.36,.43-.67,.79-.11-1.16-.2-2.12-.3-3.12h-2.08v17.82c.46,0,.87,0,1.27,0,1.28-.03,1.27,.3,1.28-1.25,.02-3.18-.03-6.36,.1-9.54,.1-2.5,1.91-4.38,4.37-4.73,.62-.09,1.28-.01,1.96-.01,.03-.51,.02-.97,.1-1.42,.15-.81-.24-1.06-.97-1.06Z"/>
    <path class="cls-1" d="M51.52,100.14h1.08c.02-.3,.04-.54,.04-.78,0-4.24,0-8.48,0-12.72,0-.5,0-.87-.7-.87-.73,0-.69,.4-.69,.88,0,1.46,0,2.91,0,4.56-.28-.21-.37-.26-.45-.33-2.48-2.15-5.94-1.27-6.8,1.87-.34,1.24-.36,2.66-.17,3.94,.36,2.45,2.06,3.77,4.31,3.68,1.2-.05,2.15-.63,3.03-1.56,.13,.52,.23,.93,.33,1.34Zm-3.31-.96c-1.33,.01-2.28-.63-2.72-1.91-.49-1.43-.5-2.88-.02-4.32,.47-1.41,1.39-2.06,2.79-2.04,1.38,.03,2.28,.72,2.69,2.16,.19,.67,.25,1.38,.38,2.12-.13,.67-.2,1.38-.41,2.04-.4,1.27-1.38,1.93-2.7,1.94Z"/>
    <path class="cls-1" d="M106.53,127.83c-.03-.76-.07-1.52-.07-2.28,0-3.72,.02-7.44-.01-11.17-.01-1.84,.43-1.7-1.76-1.63-.04,0-.09,.06-.16,.1,0,.11-.03,.25-.03,.38,0,4.78-.02,9.57,.02,14.35,0,.77,.2,1.56,.4,2.31,.22,.85,.84,1.39,1.68,1.63,1.17,.34,2.34,.25,3.5-.05v-1.55c-.5,.04-.87,.08-1.25,.09-1.69,.04-2.26-.51-2.32-2.18Z"/>
    <path class="cls-1" d="M58.96,100.24c1.14,.14,2.35-.17,3.51-.34,.85-.12,1.03-.65,.66-1.43-.72,.21-1.43,.47-2.16,.62-2.3,.48-3.87-.61-4.32-2.92-.12-.64,0-.9,.69-.88,1.6,.04,3.21,.01,4.81,.01q1.58,0,1.45-1.63c-.17-2.15-1.4-3.57-3.37-3.92-1.92-.34-3.76,.7-4.61,2.59-.53,1.18-.54,2.42-.45,3.68,.16,2.27,1.52,3.94,3.78,4.22Zm-1.02-8.83c.83-.64,2.12-.69,2.99-.16,.86,.52,1.33,1.58,1.2,2.83h-5.43c-.02-1.11,.37-2,1.23-2.67Z"/>
    <path class="cls-1" d="M35.72,99.89c.87-.14,1-.67,.62-1.42-.7,.21-1.39,.45-2.1,.61-2.37,.51-4.01-.64-4.4-3.01-.09-.58,.07-.79,.66-.78,1.6,.03,3.21,0,4.81,0q1.64,0,1.5-1.66c-.17-2.13-1.42-3.57-3.4-3.9-1.89-.32-3.72,.71-4.56,2.55-.54,1.18-.56,2.42-.47,3.67,.17,2.39,1.62,4.1,3.97,4.33,1.1,.11,2.24-.22,3.36-.4Zm-2.69-8.99c1.52,.09,2.55,1.48,2.31,3.16h-5.38c-.02-1.95,1.29-3.26,3.07-3.16Z"/>
    <path class="cls-1" d="M21.19,99.17c-.9-.01-1.29-.32-1.46-1.2-.08-.4-.07-.81-.07-1.22,0-3.1,0-6.2,0-9.3v-1.77c-.6,.29-1.42-.34-1.42,.79,.01,3.73-.02,7.45,.05,11.17,.04,2.15,1.2,3.01,3.32,2.7,.7-.1,1.05-.37,.68-1.18-.35,0-.73,0-1.1,0Z"/>
    <path class="cls-1" d="M26.46,99.17c-.9-.01-1.29-.32-1.46-1.2-.08-.4-.07-.81-.07-1.22,0-3.1,0-6.2,0-9.3v-1.77c-.6,.29-1.42-.34-1.42,.79,.01,3.73-.02,7.45,.05,11.17,.04,2.15,1.2,3.01,3.32,2.7,.7-.1,1.05-.37,.68-1.18-.35,0-.73,0-1.1,0Z"/>
    <path class="cls-1" d="M153.27,93.86c3.91-1.47,7.43-3.58,10.85-5.91,.33-.22,.63-.53,.83-.87,.12-.22,.08-.57,0-.84-.02-.07-.42-.04-.65-.04-.24,0-.47,.04-.77,.07,.25-1.36,.84-2.37,2.05-3,.94-.49,1.86-1.03,2.7-1.65,.69-.51,1.1-1.26,1.24-2.32-.89,.41-1.63,.69-2.3,1.09-4.06,2.35-8.4,4.09-12.81,5.63-4.38,1.52-8.79,2.95-13.21,4.39-.45,.15-.98,.02-1.48,.02,0-.1-.01-.2-.02-.3,.2-.07,.39-.16,.59-.22,2.16-.65,4.31-1.31,6.47-1.94,.53-.15,.81-.33,.58-.95-.23-.62,.17-.86,.74-.99,.18,.44,.34,.83,.52,1.28,.74-.3,1.43-.57,2.11-.84,0-.08-.02-.15-.02-.23-.5-.18-1-.36-1.7-.61,1.19-.47,2.18-.83,3.15-1.24,1-.42,2-.86,2.98-1.33,.92-.44,1.82-.92,2.73-1.39-.69,.03-1.33,.19-1.94,.41-4.04,1.44-8.07,2.89-12.11,4.32-.3,.11-.75,.14-1,0-.7-.41-1.26-.21-1.9,.14-1.35,.74-2.75,1.39-4.12,2.1-.43,.22-.81,.55-1.22,.8-.14,.09-.33,.15-.5,.16-.96,.1-1.96,.07-2.88,.3-2.31,.57-4.59,1.28-6.89,1.89-.48,.13-1.01,.13-1.52,.13-.73,0-1.47-.12-2.19-.07-1.73,.12-3.47,.27-5.19,.51-.66,.09-.81-.13-.88-.67-.62-4.63-1.35-9.24-1.85-13.88-.38-3.51-.62-7.04-.69-10.57-.12-5.73-.06-11.47-.06-17.21,0-.65-.13-1.51,.21-1.88,.26-.28,.77-.34,1.27-.39-.29,.63-.45,1.04-.5,1.14-.38,.75-.15,1.06,.35,1.95,.5,.88-.16,3.68-.31,4.46-.16,.78,.28,.97,.5,.88,.22-.09,.94-1.44,1.06-2s.47,0,.47,0v4.59s.38-2.16,.44-2.81c.06-.66,.19-1.66,.97-2.38,.78-.72,1.03-1.41,1.03-2.25s-.53-.81,.38-3.38c.18-.51,.53-1.1,.98-1.71,.61-.18,1.21-.36,1.81-.56,5.12-1.7,10.02-3.89,14.81-6.35,.25-.13,.39-.49,.58-.74-.29-.04-.61-.18-.87-.11-4.11,1.12-8.21,2.25-12.32,3.37,.78-.73,1.37-1.24,1.51-1.35,.44-.34,1.81-1.47,1.97-1.09,.07,.16,.07,.32,.06,.44-.71,.3-1.43,.59-2.14,.89,.04,.09,.08,.19,.12,.29,1.55-.63,3.11-1.26,4.66-1.88-.05-.11-.1-.22-.14-.33-.64,.27-1.28,.53-1.93,.8,2.35-1.49,6.99-3.05,10.47-3.05,7.53,0,20.06,6.84,18.66,20.01-1.73,16.18-16.08,16.57-16.48,16.61-.4,.04-1.33,.06-1.35,.56s1.15,.54,2.02,.54c4.88,.29,10.58-4.19,11.29-4.88s.71-.29,.31,.21c-4.27,4.96-10.87,6.06-14,6.06s-5.38-.71-6.02-.96c-.65-.25-1.29-.25-1.15-.08,.54,.79,5.44,1.5,6.69,1.5,6.73,0,11.15-2.85,13.29-4.75,0,0-.6,1.67-1.54,2.25-3.96,2.83-8.67,3.33-11.35,3.33-11.1,0-16.94-8.85-18.27-10.48,1.19,2.44,7.56,11.1,17.73,11.1s14.38-4.62,16.46-6.46c-3.65,4.23-8.98,7.31-15.5,7.31s-10.71-2.19-12.6-3.27c3.08,2.65,9.12,3.79,11.48,3.79s5.21-.23,6.25-.54c-.06,.08-.5,.44-.5,.44-1.83,.48-5.52,.73-7.31,.73-14.27,0-20.44-14.23-21.12-17.69-.25-1.27-.65-.21-.54,.27,.46,3.58,4.67,9.46,5.33,10.08s.31,.9,.12,.9-2.62-2.98-2.62-2.98l.1,.58s8.19,10.2,18.15,10.2c11.29,0,17.5-3.98,18.19-4.31,.59-.29,3.86-2.93,5.23-4.66-1.86,2.72-5.05,5.56-8.29,7.62-3.54,2.25-9.54,2.91-10.29,2.76-.75-.14-.89-.05-1.25,.39-.36,.44-.7,.17-.92,.03-.22-.14-.86-.27-1.17-.16-.31,.11-.86,.27-1.16,.28-.3,.02-1.19-.06-1.16,.34,.03,.41,.95,.64,1.62,.66,15.06,0,28.09-10.34,28.09-26.66s-11.81-22.38-15.56-24.41l.94,.02c18.62,9.79,16.12,25.57,15.81,27.98-.31,2.41-.75,5.56-.5,4.75,5.25-18-7.31-35.5-25.9-35.5-11.21,0-18.08,6.55-21.85,11.92h0c-.29,.11-.63,.08-1.04,.12,.15-.43,.23-.67,.37-1.08-.52,.15-.95,.18-1.27,.38-.49,.31-.93,.72-1.36,1.12-.12,.11-.18,.34-.16,.5,0,.09,.23,.21,.37,.22,.21,.02,.43-.02,.65-.05,.62-.08,1.24-.19,1.85-.32-.17,.26-.33,.51-.48,.76-.69,.13-1.39,.26-2.08,.38-.89,.16-1.27-.19-1.17-.95,.63-4.4,1.09-8.84,1.98-13.2,.7-3.41,1.93-6.72,2.96-10.06,.09-.29,.35-.63,.63-.76,1.82-.83,3.68-1.59,5.5-2.4,.2-.09,.32-.37,.44-.58,.15-.27,.19-.66,.4-.81,1.04-.75,1.71-1.75,2.08-2.94,.58-1.86,.74-3.77,.6-5.72-.07-1-.52-1.66-1.38-2.15-.25-.14-.51-.53-.5-.79,.03-.9-.33-1.57-1.07-1.97-1.13-.62-2.32-1.14-3.49-1.71h-.82c-.22,.24-.45,.47-.67,.71,.57,.44,1,.88,1.52,1.15,1.07,.54,1.72,1.4,2.14,2.46,1.15,2.93,1.18,5.89,0,8.81-.63,1.56-1.71,2.67-3.35,3.22-1.78,.6-3.61,.8-5.47,.62-.68-.07-1.39-.3-1.99-.63-.33-.18-.73-.81-.63-1.08,.5-1.42,.94-2.95,1.8-4.14,1.74-2.41,3.78-4.57,6.71-5.64,.61-.22,.69-.72,.34-1.26-.43-.67-1.21-.9-2.17-.67-1.77,.43-3.4,1.17-4.77,2.37-1.08,.95-2.17,1.91-3.1,3-2.68,3.15-1.77,6.17,.73,9.61,.42,.58,.44,.9,.16,1.47-2.7,5.4-4.19,11.16-5.06,17.1-.28,1.93-.48,3.87-.73,5.84-1.04,.08-1.61-.74-2.39-1.12-.46-.23-.98-.46-1.48-.48-2.05-.08-4-1.56-4.62-3.55-.12-.39-.36-.74-.54-1.11-.08,.02-.15,.04-.23,.05-.14,.82-.33,1.63-.41,2.45-.26,2.6,.46,4.84,2.58,6.51,1.35,1.06,2.91,1.67,4.55,2.1,.75,.2,1.51,.37,2.26,.55-.16,15.29,1.88,30.17,6.53,44.78-.38,.04-.72,.13-1.06,.11-3.22-.25-6.46-.38-9.66-.82-4.16-.57-8.32-1.25-12.43-2.13-5.82-1.24-11.34-3.36-16.41-6.55-2.41-1.52-4.06-3.59-4.68-6.4-.23-1.06-.33-2.14-.51-3.3-.5,.19-1.02,.36-1.5,.59-.14,.07-.27,.34-.25,.5,.35,2.97,1.06,5.86,2.09,8.68,1.94,5.3,4.99,9.52,10.38,11.8,1.88,.8,3.76,1.72,5.23,3.25,.24,.25,.67,.35,1.03,.46,4.1,1.25,8.18,2.58,12.31,3.71,3.05,.83,6.16,1.65,9.29,1.98,3.8,.4,7.65,.33,11.49,.36,.89,0,1.85-.24,2.65-.63,.79-.39,1.57-.49,2.41-.6,2.23-.29,4.53-.4,6.64-1.06,4.17-1.31,8.25-2.88,12.32-4.48,3.87-1.51,7.62-3.3,11.51-4.77Zm-9.22-6.82c.19-.12,.69,.15,.99,.35,.11,.08,.13,.59,.05,.63-.57,.29-1.18,.51-1.89,.8-.13-.18-.38-.47-.35-.52,.37-.46,.73-.95,1.21-1.26Zm10.02-45.56c.23,.21,.44,.56,1.33,1.48s1.73,2.56,1.98,3.77c0,0-1.65-2.4-1.83-2.62-.19-.23-1.67-2.4-1.79-2.62-.12-.23,.08-.21,.31,0Zm-5.19-8.13s2.54,1.19,2.58,1.29,0,.23,0,.23l-2.73-1.31,.15-.21Zm-7.25-1.54c.19,.02,3.37,.5,3.68,.69v.15l-3.68-.71v-.12Zm-20.31,8.25c.49-.59,2.58-2.15,3.13-2.56-.5,.4-1.96,1.79-3.14,3.14-.23,.09-.46,.18-.68,.27,.24-.29,.49-.59,.69-.84Zm-1.15,2.01c-.22,.32-.39,.61-.48,.84-.1,.07-.53-.26-.62-.49,.37-.11,.73-.23,1.1-.35Z"/>
    <path class="cls-1" d="M156.29,84.16c5.87-1.98,11.31-4.8,16.42-8.28-.05-.08-.09-.15-.14-.23-5.46,2.77-10.93,5.53-16.39,8.3,.04,.07,.07,.14,.11,.22Z"/>
    <path class="cls-1" d="M175.15,72.34c-.36-.09-.62-.23-.81-.18-.52,.14-1.08,.27-1.5,.58-1.5,1.09-2.94,2.26-4.44,3.42,.5,.21,5.04-2.37,6.76-3.82Z"/>
    <path class="cls-1" d="M152.52,85.74c.42-.08,.88-.08,1.25-.25,.28-.13,.45-.49,.66-.75-.18-.09-.43-.31-.52-.26-.51,.29-.97,.64-1.46,.97,.02,.1,.05,.19,.07,.29Z"/>
    <rect class="cls-1" x="23.51" y="106.83" width="2.67" height="3.5"/>
    <rect class="cls-1" x="23.51" y="113.33" width="2.67" height="18.08"/>
    <polygon class="cls-1" points="10.55 127.74 3.34 107.25 .42 107.25 8.92 131.42 9.26 131.42 11.84 131.42 12.17 131.42 20.67 107.25 17.76 107.25 10.55 127.74"/>
    <path class="cls-1" d="M135.94,53.45c-.78-.81-2.19-1.12-2.88-1.25s-3.94-.88-3.94-.88l2.41,2.62s1.72,1.91,2.78,2.22c-.3-.13-.92-1.08-1.28-2.02l3.41,1.98c-.04,.15-.07,.3-.07,.46,0,.1,.01,.2,.03,.3l-3.1,1.79,.35,.61,3.04-1.76c.12,.16,.26,.29,.42,.39l-3.66,12.65,.67,.2,3.65-12.62c.06,0,.12,.02,.19,.02,.45,0,.86-.19,1.15-.5l.94,.55,.35-.61-.94-.55c.05-.15,.08-.32,.08-.49,0-.22-.05-.44-.13-.63l5.14-2.97c-.49,.89-1.63,2.42-2.26,2.69,1-.12,3.97-2.75,3.97-2.75l3.53-3.41s-2.5,.97-4.84,1.53c-2.34,.56-4.36,1.99-4.09,1.88,1.18-.51,2.27-.47,3.21-.46l-5.06,2.93c-.11-.09-.22-.17-.35-.23l.33-1.14-.67-.2-.34,1.18c-.46,0-.87,.2-1.16,.52l-3.72-2.16c.76-.17,2.06-.21,2.87,.1Z"/>
    <rect class="cls-1" x="13.51" y="86.02" width="1.51" height="1.99"/>
    <rect class="cls-1" x="13.51" y="89.71" width="1.51" height="10.27"/>
    <polygon class="cls-1" points="5.11 99.98 6.61 99.98 6.8 99.98 11.72 85.99 10.04 85.99 5.86 97.85 1.69 85.99 0 85.99 4.92 99.98 5.11 99.98"/>
  </g>
</svg>