<?xml version="1.0" encoding="UTF-8"?>
<svg id="Calque_2" data-name="Calque 2" xmlns="http://www.w3.org/2000/svg" viewBox="0 0 175.15 131.98">
  <defs>
    <style>
      .cls-1, .cls-2 {
        fill: #02366b;
      }

      .cls-3 {
        fill: #f08517;
      }

      .cls-4, .cls-5 {
        fill: #616161;
      }

      .cls-6 {
        stroke-width: .21px;
      }

      .cls-6, .cls-7 {
        fill: #f8da28;
        stroke: #f08517;
        stroke-linejoin: round;
      }

      .cls-5, .cls-2 {
        fill-rule: evenodd;
      }

      .cls-7 {
        stroke-width: .2px;
      }
    </style>
  </defs>
  <g id="Calque_1-2" data-name="Calque 1">
    <path class="cls-6" d="M139.55,30.1c-18.59,0-25.26,18.03-25.63,18.78s-.15,1.06,.35,1.95c.5,.88-.16,3.68-.31,4.46-.16,.78,.28,.97,.5,.88,.22-.09,.94-1.44,1.06-2,.12-.56,.47,0,.47,0v4.59s.37-2.16,.44-2.81c.06-.66,.19-1.66,.97-2.37,.78-.72,1.03-1.41,1.03-2.25s-.53-.81,.37-3.37c.91-2.56,6.06-7.09,6.5-7.44,.44-.34,1.81-1.47,1.97-1.09,.16,.38-.03,.78,.06,.59,2.09-1.59,7.25-3.44,11.03-3.44,7.53,0,20.06,6.84,18.66,20.01-1.73,16.18-16.08,16.57-16.48,16.61-.4,.04-1.33,.06-1.35,.56-.02,.5,1.15,.54,2.02,.54,4.87,.29,10.58-4.19,11.29-4.88,.71-.69,.71-.29,.31,.21-4.27,4.96-10.87,6.06-14,6.06s-5.38-.71-6.02-.96c-.65-.25-1.29-.25-1.15-.08,.54,.79,5.44,1.5,6.69,1.5,6.73,0,11.15-2.85,13.29-4.75,0,0-.6,1.67-1.54,2.25-3.96,2.83-8.67,3.33-11.35,3.33-11.1,0-16.94-8.85-18.27-10.48,1.19,2.44,7.56,11.1,17.73,11.1s14.38-4.62,16.46-6.46c-3.65,4.23-8.98,7.31-15.5,7.31s-10.71-2.19-12.6-3.27c3.08,2.65,9.12,3.79,11.48,3.79s5.21-.23,6.25-.54c-.06,.08-.5,.44-.5,.44-1.83,.48-5.52,.73-7.31,.73-14.27,0-20.44-14.23-21.12-17.69-.25-1.27-.65-.21-.54,.27,.46,3.58,4.67,9.46,5.33,10.08s.31,.9,.12,.9-2.62-2.98-2.62-2.98l.1,.58s8.19,10.2,18.15,10.2c11.29,0,17.5-3.98,18.19-4.31,.59-.29,3.86-2.93,5.23-4.66,.17-.25,.35-.51,.5-.76-.1,.22-.28,.48-.5,.76-1.86,2.72-5.05,5.56-8.29,7.62-3.54,2.25-9.54,2.91-10.29,2.76s-.89-.05-1.25,.39-.7,.17-.92,.03c-.22-.14-.86-.27-1.17-.16-.31,.11-.86,.27-1.16,.28s-1.19-.06-1.16,.34c.03,.41,.95,.64,1.62,.66,15.06,0,28.09-10.34,28.09-26.66s-11.81-22.38-15.56-24.41l.94,.02c18.62,9.79,16.12,25.57,15.81,27.98-.31,2.41-.75,5.56-.5,4.75,5.25-18-7.31-35.5-25.9-35.5Zm-19.85,12.81c-.12,.08-.75-.44-.62-.62,.12-.19,.21-.21,.52-.33,.31-.12,1.17-1.21,1.73-1.9,.49-.59,2.58-2.15,3.13-2.56,.06-.05,.11-.08,.14-.1,0,0-.05,.04-.14,.1-.83,.66-4.25,4.02-4.76,5.42Zm36.73,19.75c-.19,.31-.23,.48-.27,.9s-1.55,2.61-1.37,2.33c3.92-6.15,2.75-12.52,2.33-16.15,2.46,7.75-.5,12.6-.69,12.92Zm-2.35-21.19c.23,.21,.44,.56,1.33,1.48,.9,.92,1.73,2.56,1.98,3.77,0,0-1.65-2.4-1.83-2.62-.19-.23-1.67-2.4-1.79-2.62-.12-.23,.08-.21,.31,0Zm-8.76-8.83l-3.68-.71v-.12c.19,.02,3.37,.5,3.68,.69v.15Zm6.16,2c.04,.1,0,.23,0,.23l-2.73-1.31,.15-.21s2.54,1.19,2.58,1.29Z"/>
    <path class="cls-2" d="M64.13,123.08h-1.11c-3.48,0-6.97,.01-10.45-.01-.65,0-.84,.17-.79,.84,.28,3.78,2.77,6.11,6.36,5.72,1.38-.15,2.73-.66,4.08-1.02,.28-.08,.54-.23,.91-.38,.12,.63,.27,1.2,.32,1.78,.02,.17-.17,.45-.34,.53-2.97,1.51-6.07,1.95-9.21,.75-3.01-1.15-4.35-3.65-4.75-6.69-.26-1.98-.18-3.96,.48-5.88,1.42-4.12,5.43-6.27,9.46-5.05,2.92,.89,4.29,3.1,4.78,5.93,.19,1.11,.16,2.25,.24,3.48Zm-7.57-1.91h3.1q1.91,0,1.56-1.88c-.37-1.99-1.67-3.41-3.41-3.71-2.1-.37-4,.44-4.99,2.25-.42,.77-.61,1.67-.9,2.51-.21,.6,0,.85,.64,.83,1.33-.03,2.66,0,4,0Z"/>
    <path class="cls-2" d="M145.9,116.81c-.27-.73-.5-1.35-.75-2.05,3.11-1.39,6.23-1.94,9.46-.86,2.04,.68,2.77,2.45,2.82,4.38,.12,4.32,.05,8.65,.05,12.97,0,.07-.05,.15-.08,.27h-1.89c-.16-.67-.32-1.34-.51-2.13-.44,.36-.79,.65-1.13,.94-2.12,1.74-4.54,2-7.07,1.25-1.79-.53-2.87-1.79-3.12-3.69-.27-2.16,.2-4.02,2.23-5.17,1.79-1.02,3.78-1.31,5.79-1.49,.87-.08,1.73-.14,2.6-.19,.46-.03,.69-.23,.65-.72-.06-.73-.02-1.47-.15-2.19-.3-1.63-1.36-2.46-3.01-2.55-2.03-.11-3.93,.37-5.88,1.25Zm9.02,7.68c0-.27,0-.54,0-.82,0-.93-.07-.97-.98-.87-.86,.1-1.75,.1-2.59,.29-1.21,.26-2.46,.52-3.57,1.02-1.25,.56-1.69,1.93-1.41,3.52,.2,1.13,.96,1.81,2.29,2.11,2.49,.57,6.64-1.32,6.26-5.25Z"/>
    <path class="cls-2" d="M91.32,114.48c-.26,.71-.5,1.33-.7,1.87-1.44-.29-2.77-.67-4.13-.8-.89-.09-1.84,.08-2.72,.32-.99,.28-1.56,1.04-1.62,2.12-.06,1.06,.46,1.78,1.39,2.17,1.15,.48,2.33,.89,3.5,1.34,.66,.25,1.32,.49,1.96,.78,2.26,1.04,3.14,2.56,2.96,4.93-.19,2.38-1.73,4.01-4.16,4.49-2.39,.47-4.75,.26-7.05-.59-.75-.28-1.23-.61-.92-1.51,.12-.35,.14-.74,.21-1.16,.78,.3,1.49,.61,2.23,.85,1.66,.53,3.35,.69,5.06,.25,1.18-.31,1.97-1.03,2.14-2.29,.16-1.19-.3-2.08-1.57-2.67-1.35-.63-2.77-1.1-4.16-1.65-.48-.19-.96-.37-1.43-.59-1.81-.87-2.8-2.27-2.71-4.34,.08-2.04,1.22-3.38,3.02-4.06,2.93-1.1,5.8-.61,8.71,.54Z"/>
    <path class="cls-2" d="M174.2,128.7c.05,.26,.08,.42,.1,.57,.23,1.63,.2,1.78-1.39,2.22-5.68,1.59-10.66-1.03-11.3-7.36-.18-1.79-.07-3.53,.51-5.22,1.49-4.35,5.03-5.98,9.14-5.45,1.13,.14,2.23,.57,3.44,.9-.3,.87-.53,1.52-.74,2.12-1.01-.27-1.93-.59-2.88-.76-3.12-.55-5.53,.96-6.43,3.99-.57,1.89-.59,3.81-.09,5.71,.89,3.44,3.78,5.01,7.41,4.04,.72-.19,1.43-.48,2.23-.75Z"/>
    <path class="cls-2" d="M47.87,129.7c.43,1.86,.44,1.92-1.4,2.1-.96,.1-1.96,.05-2.91-.13-1.34-.25-2.23-1.15-2.54-2.47-.23-.97-.37-1.98-.38-2.97-.03-6.15-.02-12.29-.02-18.44,0-1.07,0-1.08,1.09-1.11,.46-.01,.91,0,1.47,0v1.01c0,5.9,0,11.8,0,17.7,0,.81,.07,1.63,.18,2.43,.18,1.25,.91,1.85,2.16,1.87,.76,.01,1.51,0,2.34,0Z"/>
    <path class="cls-2" d="M38.7,129.7c.43,1.86,.44,1.92-1.4,2.1-.96,.1-1.96,.05-2.91-.13-1.34-.25-2.23-1.15-2.54-2.47-.23-.97-.37-1.98-.38-2.97-.03-6.15-.02-12.29-.02-18.44,0-1.07,0-1.08,1.09-1.11,.46-.01,.91,0,1.47,0v1.01c0,5.9,0,11.8,0,17.7,0,.81,.07,1.63,.18,2.43,.18,1.25,.91,1.85,2.16,1.87,.76,.01,1.51,0,2.34,0Z"/>
    <path class="cls-2" d="M137.72,106.68v1.03c0,5.93-.01,11.86,.01,17.78,0,.92,.11,1.84,.3,2.74,.19,.93,.88,1.41,1.82,1.46,.43,.02,.87,.01,1.3,0,.4-.02,.8-.07,1.2-.11,.56,1.82,.47,2.04-1.28,2.22-.96,.1-1.96,.06-2.91-.11-1.38-.24-2.28-1.15-2.61-2.5-.22-.92-.37-1.87-.37-2.81-.03-6.23,0-12.46-.04-18.68,0-.75,.24-1.04,.96-1.02,.51,.02,1.02,0,1.62,0Z"/>
    <path class="cls-2" d="M112.97,125.19c-.18,3.26,2.27,5.35,5.48,4.75,1.03-.19,2.04-.54,3.07-.81,.61,1.14,.52,1.44-.71,1.92-1.74,.68-3.53,.88-5.36,.48-1.5-.33-2.68-1.15-3.51-2.46-1.58-2.52-1.42-6.57,.35-8.95,1.38-1.86,3.83-2.63,6.21-1.96,2.03,.57,3.51,2.5,3.7,4.79q.18,2.24-2.02,2.24h-7.22Zm.11-1.7c2.29,0,4.51,0,6.74,0,.5,0,.49-.29,.45-.66-.24-2.16-1.64-3.32-3.84-3.19-1.88,.12-3.37,1.78-3.35,3.84Z"/>
    <path class="cls-2" d="M68.14,113.75h2.08c.09,1,.19,1.95,.3,3.12,.3-.36,.49-.58,.67-.79,1.32-1.58,2.95-2.53,5.07-2.53,.74,0,1.12,.25,.97,1.06-.08,.45-.07,.91-.1,1.42-.68,0-1.34-.08-1.96,.01-2.45,.36-4.27,2.24-4.37,4.73-.13,3.18-.08,6.36-.1,9.54,0,1.55,0,1.22-1.28,1.25-.4,0-.81,0-1.27,0v-17.82Z"/>
    <path class="cls-5" d="M51.27,91.21c0-1.64,0-3.1,0-4.56,0-.49-.05-.89,.69-.88,.71,0,.7,.37,.7,.87,0,4.24,0,8.48,0,12.72,0,.24-.03,.48-.04,.78h-1.08c-.1-.4-.2-.81-.33-1.34-.87,.93-1.83,1.51-3.03,1.56-2.25,.1-3.95-1.23-4.31-3.68-.19-1.28-.17-2.7,.17-3.94,.86-3.14,4.32-4.03,6.8-1.87,.08,.07,.17,.13,.45,.33Zm.06,3.98c-.13-.74-.19-1.45-.38-2.12-.4-1.44-1.3-2.14-2.69-2.16-1.4-.03-2.31,.63-2.79,2.04-.48,1.44-.47,2.89,.02,4.32,.44,1.28,1.39,1.92,2.72,1.91,1.33-.01,2.3-.67,2.7-1.94,.21-.67,.28-1.37,.41-2.04Z"/>
    <path class="cls-2" d="M110.09,129.93v1.55c-1.15,.3-2.32,.39-3.5,.05-.84-.24-1.45-.78-1.68-1.63-.2-.75-.39-1.54-.4-2.31-.04-4.78-.02-9.56-.02-14.35,0-.13,.02-.26,.03-.38,.07-.05,.11-.1,.16-.1,2.18-.07,1.74-.21,1.76,1.63,.03,3.72,0,7.45,.01,11.17,0,.76,.05,1.52,.07,2.28,.05,1.67,.63,2.22,2.32,2.18,.38,0,.75-.05,1.25-.09Z"/>
    <path class="cls-5" d="M63.13,98.47c.38,.78,.2,1.31-.66,1.43-1.17,.17-2.37,.48-3.51,.34-2.26-.29-3.62-1.95-3.78-4.22-.09-1.25-.08-2.49,.45-3.68,.85-1.89,2.68-2.94,4.61-2.59,1.98,.35,3.2,1.78,3.37,3.92q.13,1.63-1.45,1.63c-1.61,0-3.21,.02-4.81-.01-.7-.02-.82,.25-.69,.88,.45,2.31,2.02,3.4,4.32,2.92,.73-.15,1.44-.41,2.16-.62Zm-.99-4.4c.13-1.25-.34-2.31-1.2-2.83-.88-.53-2.17-.48-2.99,.16-.86,.67-1.25,1.56-1.23,2.67h5.43Z"/>
    <path class="cls-5" d="M36.34,98.48c.37,.74,.24,1.28-.62,1.42-1.12,.18-2.26,.51-3.36,.4-2.35-.23-3.8-1.94-3.97-4.33-.09-1.26-.07-2.49,.47-3.67,.84-1.84,2.67-2.87,4.56-2.55,1.97,.34,3.22,1.77,3.4,3.9q.14,1.66-1.5,1.66c-1.6,0-3.21,.02-4.81,0-.59,0-.76,.2-.66,.78,.39,2.38,2.03,3.52,4.4,3.01,.71-.15,1.39-.4,2.1-.61Zm-6.39-4.42h5.38c.24-1.68-.79-3.06-2.31-3.16-1.79-.11-3.1,1.21-3.07,3.16Z"/>
    <path class="cls-5" d="M19.65,85.68v1.77c0,3.1,0,6.2,0,9.3,0,.41,0,.82,.07,1.22,.17,.88,.56,1.19,1.46,1.2,.37,0,.75,0,1.1,0,.37,.81,.02,1.08-.68,1.18-2.12,.3-3.27-.55-3.32-2.7-.08-3.72-.04-7.45-.05-11.17,0-1.12,.81-.49,1.42-.79Z"/>
    <path class="cls-5" d="M24.92,85.68v1.77c0,3.1,0,6.2,0,9.3,0,.41,0,.82,.07,1.22,.17,.88,.56,1.19,1.46,1.2,.37,0,.75,0,1.1,0,.37,.81,.02,1.08-.68,1.18-2.12,.3-3.27-.55-3.32-2.7-.08-3.72-.04-7.45-.05-11.17,0-1.12,.81-.49,1.42-.79Z"/>
    <g>
      <path class="cls-2" d="M121.52,0c1.17,.56,2.35,1.09,3.49,1.71,.73,.4,1.1,1.07,1.07,1.97,0,.26,.25,.65,.5,.79,.86,.48,1.31,1.15,1.38,2.15,.13,1.95-.02,3.86-.6,5.72-.37,1.2-1.04,2.2-2.08,2.94-.22,.15-.25,.55-.4,.81-.12,.21-.24,.5-.44,.58-1.83,.82-3.68,1.58-5.5,2.4-.27,.12-.54,.46-.63,.76-1.03,3.34-2.26,6.65-2.96,10.06-.89,4.35-1.35,8.79-1.98,13.2-.11,.76,.28,1.11,1.17,.95,1.66-.29,3.32-.57,4.94-1.01,5.55-1.49,11.09-3.04,16.64-4.55,.26-.07,.58,.07,.87,.11-.19,.25-.33,.61-.58,.74-4.79,2.46-9.7,4.65-14.81,6.35-2.08,.69-4.2,1.26-6.31,1.89-.08,.02-.15,.06-.23,.08-.65,.15-1.52,.09-1.9,.49-.35,.37-.21,1.23-.21,1.88,0,5.74-.06,11.47,.06,17.21,.07,3.53,.31,7.07,.69,10.57,.51,4.64,1.23,9.25,1.85,13.88,.07,.54,.22,.76,.88,.67,1.72-.24,3.46-.39,5.19-.51,.73-.05,1.46,.07,2.19,.07,.51,0,1.04,0,1.52-.13,2.3-.62,4.58-1.32,6.89-1.89,.93-.23,1.92-.2,2.88-.3,.17-.02,.35-.07,.5-.16,.41-.26,.79-.58,1.22-.8,1.37-.71,2.77-1.37,4.12-2.1,.64-.35,1.2-.56,1.9-.14,.25,.15,.7,.11,1,0,4.04-1.42,8.07-2.88,12.11-4.32,.61-.22,1.24-.37,1.94-.41-.91,.46-1.81,.95-2.73,1.39-.98,.47-1.97,.91-2.98,1.33-.97,.41-1.96,.77-3.15,1.24,.7,.25,1.2,.43,1.7,.61,0,.08,.02,.15,.02,.23-.68,.27-1.36,.54-2.11,.84-.18-.45-.34-.84-.52-1.28-.57,.12-.97,.36-.74,.99,.23,.62-.05,.8-.58,.95-2.16,.63-4.32,1.29-6.47,1.94-.2,.06-.39,.15-.59,.22,0,.1,.01,.2,.02,.3,.5,0,1.03,.13,1.48-.02,4.41-1.43,8.83-2.86,13.21-4.39,4.41-1.54,8.75-3.28,12.81-5.63,.68-.39,1.42-.67,2.3-1.08-.13,1.06-.54,1.81-1.24,2.32-.85,.62-1.77,1.16-2.7,1.65-1.21,.63-1.8,1.64-2.05,3,.3-.03,.53-.06,.77-.07,.23,0,.63-.03,.65,.04,.07,.27,.12,.62,0,.84-.2,.34-.5,.65-.83,.87-3.42,2.33-6.95,4.43-10.85,5.91-3.88,1.46-7.64,3.25-11.51,4.77-4.07,1.59-8.16,3.17-12.32,4.48-2.12,.67-4.42,.77-6.64,1.06-.83,.11-1.62,.21-2.41,.6-.79,.4-1.76,.64-2.65,.63-3.83-.03-7.69,.04-11.49-.36-3.13-.33-6.24-1.15-9.29-1.98-4.14-1.12-8.21-2.45-12.31-3.71-.36-.11-.79-.21-1.03-.46-1.47-1.54-3.35-2.46-5.23-3.25-5.4-2.28-8.45-6.5-10.38-11.8-1.03-2.82-1.73-5.71-2.09-8.68-.02-.16,.12-.43,.25-.5,.48-.23,.99-.4,1.5-.59,.17,1.16,.27,2.24,.51,3.3,.62,2.81,2.27,4.88,4.68,6.4,5.07,3.19,10.59,5.3,16.41,6.55,4.11,.88,8.26,1.56,12.43,2.13,3.2,.44,6.43,.57,9.66,.82,.33,.03,.68-.07,1.06-.11-4.65-14.61-6.69-29.5-6.53-44.78-.76-.18-1.51-.35-2.26-.55-1.64-.43-3.2-1.04-4.55-2.1-2.12-1.67-2.84-3.9-2.58-6.51,.08-.82,.27-1.64,.41-2.45,.08-.02,.15-.03,.23-.05,.18,.37,.42,.72,.54,1.11,.62,2,2.57,3.47,4.62,3.55,.5,.02,1.01,.25,1.48,.48,.78,.38,1.35,1.2,2.39,1.12,.24-1.97,.45-3.91,.73-5.84,.87-5.94,2.36-11.7,5.06-17.1,.28-.56,.26-.89-.16-1.47-2.5-3.44-3.41-6.47-.73-9.61,.93-1.09,2.02-2.06,3.1-3,1.37-1.2,3-1.94,4.77-2.37,.97-.24,1.75,0,2.17,.67,.35,.54,.28,1.04-.34,1.26-2.93,1.07-4.97,3.23-6.71,5.64-.86,1.2-1.3,2.72-1.8,4.14-.09,.27,.3,.9,.63,1.08,.6,.33,1.31,.56,1.99,.63,1.86,.18,3.68-.02,5.47-.62,1.64-.55,2.72-1.67,3.35-3.22,1.19-2.93,1.16-5.88,0-8.81-.42-1.06-1.08-1.92-2.14-2.46-.52-.26-.95-.71-1.52-1.15,.23-.24,.45-.48,.67-.71h.82Zm21.67,88.82c.71-.29,1.32-.51,1.89-.8,.08-.04,.07-.55-.05-.63-.29-.19-.8-.47-.99-.35-.48,.31-.84,.8-1.21,1.26-.04,.05,.22,.33,.35,.52Z"/>
      <path class="cls-2" d="M172.71,75.87c-5.11,3.48-10.56,6.3-16.42,8.28-.04-.07-.07-.14-.11-.22,5.46-2.77,10.93-5.53,16.39-8.3,.05,.08,.09,.15,.14,.23Z"/>
      <path class="cls-2" d="M124.84,40.14c-.61,.27-1.23,.52-1.83,.81-2.47,1.17-5.06,1.91-7.77,2.28-.22,.03-.44,.07-.65,.05-.14-.01-.36-.13-.37-.22-.02-.16,.05-.39,.16-.5,.43-.4,.87-.81,1.36-1.12,.32-.2,.74-.23,1.27-.38-.14,.41-.22,.65-.37,1.08,.42-.04,.75-.02,1.04-.12,1.22-.45,2.43-.93,3.65-1.4,.05-.02,.11-.07,.15-.05,1.21,.39,2.14-.66,3.35-.43Z"/>
      <path class="cls-2" d="M175.15,72.34c-1.72,1.45-6.26,4.03-6.76,3.82,1.5-1.16,2.94-2.33,4.44-3.42,.42-.31,.99-.44,1.5-.58,.2-.05,.45,.09,.81,.18Z"/>
      <path class="cls-2" d="M129.96,39.15c-1.55,.63-3.11,1.26-4.66,1.88-.04-.09-.08-.19-.12-.29,1.55-.64,3.09-1.28,4.64-1.93,.05,.11,.1,.22,.14,.33Z"/>
      <path class="cls-2" d="M152.45,85.45c.48-.33,.95-.68,1.46-.97,.1-.05,.34,.17,.52,.26-.22,.26-.38,.62-.66,.75-.37,.18-.83,.18-1.25,.25-.02-.1-.05-.19-.07-.29Z"/>
    </g>
    <rect class="cls-1" x="23.51" y="106.83" width="2.67" height="3.5"/>
    <rect class="cls-1" x="23.51" y="113.33" width="2.67" height="18.08"/>
    <polygon class="cls-1" points="17.76 107.25 10.55 127.74 3.34 107.25 .42 107.25 8.92 131.42 9.26 131.42 11.84 131.42 12.17 131.42 20.67 107.25 17.76 107.25"/>
    <path class="cls-6" d="M159.28,71.99c.22-.28,.4-.54,.5-.76-.15,.25-.33,.51-.5,.76Z"/>
    <g>
      <polygon class="cls-3" points="134.12 70.76 133.45 70.57 138.3 53.82 138.97 54.01 134.12 70.76"/>
      <rect class="cls-3" x="136.03" y="51.24" width=".7" height="8.89" transform="translate(19.7 145.61) rotate(-59.83)"/>
      <rect class="cls-3" x="132.42" y="54.71" width="15.67" height=".7" transform="translate(-8.73 77.54) rotate(-30.01)"/>
    </g>
    <path class="cls-7" d="M129.13,51.32l2.41,2.62s1.72,1.91,2.78,2.22c-.37-.16-1.28-1.62-1.5-2.75,.69-.22,2.22-.31,3.12,.03-.78-.81-2.19-1.12-2.87-1.25-.69-.12-3.94-.87-3.94-.87Z"/>
    <path class="cls-6" d="M139.55,56.58c0,.88-.71,1.59-1.59,1.59s-1.59-.71-1.59-1.59,.71-1.59,1.59-1.59,1.59,.71,1.59,1.59Z"/>
    <path class="cls-7" d="M142.29,55.67c1-.12,3.97-2.75,3.97-2.75l3.53-3.41s-2.5,.97-4.84,1.53c-2.34,.56-4.36,1.99-4.09,1.88,1.5-.66,2.87-.41,3.94-.47-.09,.53-1.7,2.88-2.5,3.22Z"/>
    <path class="cls-6" d="M154.78,65.9c-.18,.28,1.33-1.92,1.37-2.33s.08-.58,.27-.9c.19-.31,3.15-5.17,.69-12.92,.42,3.63,1.58,10-2.33,16.15Z"/>
    <path class="cls-6" d="M124.45,37.5c.09-.06,.14-.1,.14-.1-.03,.02-.08,.05-.14,.1Z"/>
    <rect class="cls-4" x="13.51" y="86.02" width="1.51" height="1.99"/>
    <rect class="cls-4" x="13.51" y="89.71" width="1.51" height="10.27"/>
    <polygon class="cls-4" points="10.04 85.99 5.86 97.85 1.69 85.99 0 85.99 4.92 99.98 5.11 99.98 6.61 99.98 6.8 99.98 11.72 85.99 10.04 85.99"/>
  </g>
</svg>
